PathFileType	4	(X/Y/Z)	/Users/niels/Desktop/University/Third Semester/Perception and Action/Exam/Gymnastics Motion Tracking/Code for Gym Tracking/Analyzed Data/Webcam_Backflip/id15_1_baseline_Sports2D/id15_1_baseline_Sports2D_px_person00.trc
DataRate	CameraRate	NumFrames	NumMarkers	Units	OrigDataRate	OrigDataStartFrame	OrigNumFrames
29.708737864077673	29.708737864077673	7	22	m	29.708737864077673	38	103
Frame#	Time	Hip			RHip			RKnee			RAnkle			RBigToe			RSmallToe			RHeel			LHip			LKnee			LAnkle			LBigToe			LSmallToe			LHeel			Neck			Head			Nose			RShoulder			RElbow			RWrist			LShoulder			LElbow			LWrist		
		X1	Y1	Z1	X2	Y2	Z2	X3	Y3	Z3	X4	Y4	Z4	X5	Y5	Z5	X6	Y6	Z6	X7	Y7	Z7	X8	Y8	Z8	X9	Y9	Z9	X10	Y10	Z10	X11	Y11	Z11	X12	Y12	Z12	X13	Y13	Z13	X14	Y14	Z14	X15	Y15	Z15	X16	Y16	Z16	X17	Y17	Z17	X18	Y18	Z18	X19	Y19	Z19	X20	Y20	Z20	X21	Y21	Z21	X22	Y22	Z22
38	1.2790849673202613	1.0355514990183834	-0.610538515319468	0.0	0.987882781299655	-0.62346206744128	0.0	0.8676499551661273	-0.7720833766029278	0.0	0.8509556595780775	-0.9349737501440383	0.0	0.7795659804187998	-0.9716203401956006	0.0	0.7768574055183526	-0.9600157578561102	0.0	0.8638104742822477	-0.9546778420091041	0.0	1.0859415912259531	-0.6169392882746005	0.0	1.1722084215693704	-0.7665140018304869	0.0	1.3233655252106735	-0.9569280493255351	0.0	1.3432915018376803	-1.0054499185168058	0.0	1.3705943577632438	-0.9948410745187269	0.0	1.3427076064907475	-0.9725847678063934	0.0	1.0120218570221151	-0.34205538444504757	0.0	0.9968819351453821	-0.21232751178308576	0.0	0.986067136976681	-0.290677961055704	0.0	0.9429819944892737	-0.3796446099404115	0.0	0.9177918542808416	-0.4730492146271519	0.0	0.9405987852650264	-0.5191232023144016	0.0	1.0851814332838214	-0.3683789422579295	0.0	1.0618863553535542	-0.34937143806525395	0.0	1.0642358628549986	-0.2736373733877804	0.0
39	1.3127450980392157	1.0389459879839436	-0.6290246037196973	0.0	0.9913853550033183	-0.6425180466188097	0.0	0.8638766081808599	-0.7791897366131592	0.0	0.8526460052416848	-0.9405395543234147	0.0	0.7809950886978098	-0.9722021332972688	0.0	0.7787542410524122	-0.9619111548371696	0.0	0.8657269996236172	-0.959664093930894	0.0	1.0888255634311155	-0.6352775871830938	0.0	1.173537016280955	-0.7743379986090284	0.0	1.3262685467950281	-0.9605320932724473	0.0	1.3448328703968184	-1.0069363942506455	0.0	1.372873565490844	-0.9962216496603598	0.0	1.3465135648048485	-0.975945924329633	0.0	1.012287989295697	-0.36315027105139924	0.0	0.9937761872098732	-0.23600923493242143	0.0	0.9818926114289864	-0.3124628006825807	0.0	0.9512849132374702	-0.40181853577803295	0.0	0.9328855658410871	-0.48320148226431936	0.0	0.933148138317341	-0.5279428731238159	0.0	1.0811248321692262	-0.3888668437518882	0.0	1.048650231060647	-0.37386412420107556	0.0	1.0489031562316389	-0.3044802603517504	0.0
40	1.3464052287581698	1.0415875773799672	-0.6432197153408092	0.0	0.9938992612972783	-0.6569961012114865	0.0	0.8591820928105696	-0.7825254769373025	0.0	0.8528561294419935	-0.9440780150174919	0.0	0.780361120657342	-0.9722719219415936	0.0	0.7785532896879807	-0.9631413871658401	0.0	0.8662497624794298	-0.9625976259953689	0.0	1.0907019235720026	-0.6493168670190661	0.0	1.1730141574059298	-0.7785208808538241	0.0	1.326212726569322	-0.9618066201415197	0.0	1.3440956179289887	-1.0067446827859174	0.0	1.3726217978911883	-0.9958071713189424	0.0	1.3465709394443217	-0.9771639916917837	0.0	1.012200561454059	-0.38075335633666446	0.0	0.9901257172217933	-0.256761229818571	0.0	0.9770481857940553	-0.3314621859362324	0.0	0.9595065227904288	-0.41875481911582907	0.0	0.9507581634896707	-0.49173392440867747	0.0	0.9338650728861193	-0.5353500069913475	0.0	1.0765372552723473	-0.4048370329087334	0.0	1.0404737737698961	-0.4001364772480063	0.0	1.0354130691608037	-0.33791883357869684	0.0
41	1.3800653594771242	1.0430818729494313	-0.6526770835816923	0.0	0.9951499828856922	-0.666572744012774	0.0	0.8543728469278257	-0.7834879627190645	0.0	0.8524248891099778	-0.9457978089065419	0.0	0.778789076545298	-0.971975427920973	0.0	0.7774361976892228	-0.9637741593354686	0.0	0.8661184832350985	-0.9637120195132255	0.0	1.0914637052721934	-0.6587881352942306	0.0	1.1717829476934098	-0.779594794111424	0.0	1.3247667531096041	-0.961513626757904	0.0	1.3424685054128522	-1.0055330938637088	0.0	1.371219228340835	-0.9944957742371437	0.0	1.344701374564274	-0.977033682108861	0.0	1.011994799795049	-0.3937011352312817	0.0	0.9871359106500054	-0.27260072967378834	0.0	0.9731018082098507	-0.3458710614394806	0.0	0.9662272888245782	-0.4303163843029083	0.0	0.968056642070484	-0.5006373949961824	0.0	0.9406829592339325	-0.5422476643712056	0.0	1.0727662761417955	-0.41589396122207073	0.0	1.0391304814147475	-0.42599932547775754	0.0	1.0241397928041307	-0.37158535957475847	0.0
42	1.4137254901960783	1.043206482497979	-0.6576657623806154	0.0	0.9949675089396609	-0.6715947852669534	0.0	0.8499914883130967	-0.7834971190270816	0.0	0.8517104048487266	-0.9461536422413792	0.0	0.7770773547221704	-0.971493157362439	0.0	0.7761250668169208	-0.9639233003554714	0.0	0.8656008120671755	-0.9636106068137706	0.0	1.091149410443085	-0.664037560104679	0.0	1.1707651988407035	-0.778286494482113	0.0	1.3231043666470432	-0.960391890686045	0.0	1.3408670699412861	-1.003971686083746	0.0	1.369693795181099	-0.9930458103570421	0.0	1.3422680117135568	-0.9762982276644745	0.0	1.0118600353617033	-0.401698250485679	0.0	0.9857722312815514	-0.2825576428067208	0.0	0.9712979207299495	-0.35483113455602244	0.0	0.9702800599638932	-0.4373450150473323	0.0	0.9810410149306082	-0.5108720111366138	0.0	0.9496996639811567	-0.5481812772370124	0.0	1.0708416762782293	-0.42245415837654593	0.0	1.046417091264053	-0.44993743166252775	0.0	1.0164209407210114	-0.40447716140272144	0.0
43	1.4473856209150326	1.0420369950707105	-0.6590086097862745	0.0	0.9933545266661417	-0.6728311344480234	0.0	0.8463833770666799	-0.7836878495672612	0.0	0.850650107191247	-0.9456308865521871	0.0	0.7756104241627356	-0.9709977903429672	0.0	0.7748416138920328	-0.9637270484089612	0.0	0.8645390173274912	-0.9629064744758206	0.0	1.0899113356445924	-0.6658260843984828	0.0	1.1706742105619226	-0.775519193847727	0.0	1.3219916791147908	-0.9590626829594187	0.0	1.3398083570231123	-1.0024915534485275	0.0	1.3685699652035836	-0.9918636930501991	0.0	1.340133084443159	-0.9755880654934935	0.0	1.012175920441383	-0.4052163411403273	0.0	0.9864854585380484	-0.286857925788571	0.0	0.9723645823044962	-0.35862585790854923	0.0	0.9711381494663512	-0.44086860276064027	0.0	0.9864957499570893	-0.5217735521484	0.0	0.9570791491555534	-0.5516191439710108	0.0	1.0716148362765292	-0.4254986353325955	0.0	1.0633120569172112	-0.47127543643686426	0.0	1.0141550149079472	-0.4363519982807558	0.0
44	1.4810457516339868	1.0399182471905666	-0.6578453053824771	0.0	0.9905637005560145	-0.6712987393184606	0.0	0.8438690775957914	-0.7849313809263981	0.0	0.8489233081298054	-0.9447230687796009	0.0	0.7743647102291866	-0.9706045507467485	0.0	0.7734367126258627	-0.9633678199871082	0.0	0.8624904091011129	-0.9621242018631218	0.0	1.0880121090976678	-0.6650837527040573	0.0	1.171899515398601	-0.7722022740822965	0.0	1.3216770493322678	-0.9578992126245665	0.0	1.3395883857886932	-1.0011718321767125	0.0	1.3679506537116175	-0.9909600253374425	0.0	1.3386209027039073	-0.9753162899433736	0.0	1.013372888023826	-0.40525016494583416	0.0	0.98921460719181	-0.28671036618597523	0.0	0.9765045303698962	-0.358329413793038	0.0	0.9689458578931763	-0.4419296686218752	0.0	0.9823799637370065	-0.5321418749536578	0.0	0.9603566752661757	-0.5513761729263427	0.0	1.0757916710040911	-0.4262737819677694	0.0	1.0883941983859051	-0.4898542057943045	0.0	1.0189438009054261	-0.46652299082689436	0.0
